HIERARCHY
ROOT Hips
{
	OFFSET 4.076200 -17.275196 43.303001
	CHANNELS 6 Xposition Yposition Zposition Zrotation Xrotation Yrotation
	JOINT Chest
	{
		OFFSET -0.689800 0.941999 5.341000
		CHANNELS 6 Xposition Yposition Zposition Zrotation Xrotation Yrotation
		JOINT Chest2
		{
			OFFSET 0.000000 0.000000 4.278900
			CHANNELS 6 Xposition Yposition Zposition Zrotation Xrotation Yrotation
			JOINT Neck
			{
				OFFSET 0.000000 0.000000 9.970299
				CHANNELS 6 Xposition Yposition Zposition Zrotation Xrotation Yrotation
				JOINT Head
				{
					OFFSET 0.000000 0.000002 2.173901
					CHANNELS 6 Xposition Yposition Zposition Zrotation Xrotation Yrotation
					End Site
					{
						OFFSET 0.000000 0.000000 6.488197
					}
				}
			}
			JOINT LeftCollar
			{
				OFFSET 2.472300 -0.285801 5.433899
				CHANNELS 6 Xposition Yposition Zposition Zrotation Xrotation Yrotation
				JOINT LeftShoulder
				{
					OFFSET 5.327700 0.000000 0.000000
					CHANNELS 6 Xposition Yposition Zposition Zrotation Xrotation Yrotation
					JOINT LeftElbow
					{
						OFFSET 0.000000 0.000000 -10.713001
						CHANNELS 6 Xposition Yposition Zposition Zrotation Xrotation Yrotation
						JOINT LeftWrist
						{
							OFFSET 0.000000 -0.000002 -13.396900
							CHANNELS 6 Xposition Yposition Zposition Zrotation Xrotation Yrotation
							End Site
							{
								OFFSET 0.000000 0.000000 -2.173901
							}
						}
					}
				}
			}
			JOINT RightCollar
			{
				OFFSET -2.589400 -1.358400 6.105000
				CHANNELS 6 Xposition Yposition Zposition Zrotation Xrotation Yrotation
				JOINT RightShoulder
				{
					OFFSET -4.580200 0.000000 0.000000
					CHANNELS 6 Xposition Yposition Zposition Zrotation Xrotation Yrotation
					JOINT RightElbow
					{
						OFFSET 0.000000 0.000000 -10.761101
						CHANNELS 6 Xposition Yposition Zposition Zrotation Xrotation Yrotation
						JOINT RightWrist
						{
							OFFSET 0.000000 -0.000002 -13.028500
							CHANNELS 6 Xposition Yposition Zposition Zrotation Xrotation Yrotation
							End Site
							{
								OFFSET 0.000000 0.000000 -2.173901
							}
						}
					}
				}
			}
		}
	}
	JOINT LeftHip
	{
		OFFSET 2.532500 0.486900 -2.489700
		CHANNELS 6 Xposition Yposition Zposition Zrotation Xrotation Yrotation
		JOINT LeftKnee
		{
			OFFSET 0.000000 -0.000002 -18.199398
			CHANNELS 6 Xposition Yposition Zposition Zrotation Xrotation Yrotation
			JOINT LeftAnkle
			{
				OFFSET 0.000000 -0.000002 -16.083900
				CHANNELS 6 Xposition Yposition Zposition Zrotation Xrotation Yrotation
				End Site
				{
					OFFSET 0.000000 -8.641399 0.000000
				}
			}
		}
	}
	JOINT RightHip
	{
		OFFSET -2.112700 -0.049900 -2.711102
		CHANNELS 6 Xposition Yposition Zposition Zrotation Xrotation Yrotation
		JOINT RightKnee
		{
			OFFSET 0.000000 -0.000002 -19.127298
			CHANNELS 6 Xposition Yposition Zposition Zrotation Xrotation Yrotation
			JOINT RightAnkle
			{
				OFFSET 0.000000 -0.000002 -14.874901
				CHANNELS 6 Xposition Yposition Zposition Zrotation Xrotation Yrotation
				End Site
				{
					OFFSET 0.000000 -8.198299 0.000000
				}
			}
		}
	}
}
MOTION
Frames: 4
Frame Time: 0.041667
-53.802601 -48.657700 43.815105 -331.302724 9.913284 -0.180132 -0.689799 0.942002 5.340994 1.674884 -11.925236 7.656786 -0.000000 -0.000009 4.278903 -1.774979 0.205883 -0.002725 -0.000000 -0.000007 9.970299 32.021457 -2.526216 -10.878967 -0.000002 0.000000 2.173906 4.182707 -2.011906 3.648588 2.472301 -0.285802 5.433902 -12.610037 5.550805 -7.632246 5.327704 -0.000003 0.000002 -315.969441 -71.933326 -357.972018 0.000001 -0.000003 -10.713008 70.722115 -15.230876 49.218596 0.000000 -0.000000 -13.396896 -6.105348 -1.117790 -62.871003 -2.589398 -1.358402 6.105004 3.241309 -10.092274 36.005977 -4.580198 0.000002 0.000009 55.045854 -50.732897 150.360713 -0.000006 -0.000001 -10.761100 -31.708351 -17.288590 -13.043271 -0.000004 -0.000015 -13.028499 174.086974 179.311741 218.326368 2.532500 0.486899 -2.489705 75.928577 -47.002100 33.926919 0.000000 -0.000003 -18.199408 -415.877952 66.855264 34.051102 -0.000002 -0.000008 -16.083899 346.072025 60.496816 11.012457 -2.112701 -0.049900 -2.711104 2.838014 -6.681599 0.829138 0.000004 0.000001 -19.127302 -24.283932 18.190751 -5.947912 0.000001 0.000002 -14.874905 6.370251 32.394836 20.810051
-53.845608 -48.638901 43.834106 -331.332176 9.948772 -0.323252 -0.689801 0.941994 5.340995 1.449433 -12.058377 7.558458 0.000001 0.000003 4.278907 -1.609833 0.156671 0.013907 0.000006 0.000001 9.970296 32.138991 -2.203647 -10.735292 -0.000002 0.000006 2.173901 4.205419 -1.998123 3.529499 2.472305 -0.285806 5.433898 -12.695626 5.546669 -7.254119 5.327699 -0.000004 0.000001 -316.061485 -71.963146 -358.300194 0.000004 -0.000000 -10.713001 70.425213 -15.187960 49.270953 0.000001 0.000000 -13.396897 -6.125225 -0.943094 -63.267646 -2.589388 -1.358400 6.104992 3.388755 -9.396068 36.229345 -4.580198 -0.000001 0.000002 55.158081 -51.146478 150.791534 0.000003 -0.000003 -10.761106 -31.640851 -17.518704 -13.134535 0.000003 -0.000008 -13.028490 174.113885 179.248684 218.303938 2.532504 0.486895 -2.489700 75.501881 -46.915958 33.733314 -0.000003 0.000003 -18.199398 -414.437629 66.839036 32.833792 -0.000006 -0.000006 -16.083899 345.835400 60.530304 10.774959 -2.112697 -0.049903 -2.711107 2.681974 -6.805560 0.888078 0.000002 0.000003 -19.127296 -24.157534 18.230805 -5.866478 -0.000005 0.000008 -14.874898 6.387907 32.471928 20.882016
-53.884003 -48.613396 43.852798 -331.384550 9.935340 -0.523450 -0.689805 0.942003 5.340997 1.414248 -12.121082 7.593250 -0.000006 -0.000004 4.278896 -1.577326 0.137413 0.012287 -0.000009 -0.000005 9.970302 32.218767 -1.929502 -10.658216 0.000014 -0.000002 2.173898 4.152200 -2.004276 3.556693 2.472290 -0.285810 5.433906 -12.714847 5.515495 -7.107674 5.327701 -0.000007 -0.000007 -315.739073 -71.862599 -358.139822 0.000000 -0.000006 -10.712994 70.053774 -15.187791 49.261913 0.000002 -0.000002 -13.396889 -6.024146 -0.876795 -63.688550 -2.589411 -1.358404 6.105006 3.476241 -9.197638 36.379814 -4.580202 -0.000003 -0.000007 55.003196 -51.154890 150.733724 -0.000001 0.000000 -10.761095 -31.337751 -17.681089 -13.147601 0.000011 -0.000004 -13.028500 173.755491 179.272180 218.390518 2.532495 0.486898 -2.489706 74.739181 -46.796170 33.265296 0.000004 0.000002 -18.199398 -412.973974 66.730019 31.760086 -0.000010 -0.000005 -16.083899 345.946049 60.511357 10.206411 -2.112702 -0.049898 -2.711103 2.495942 -6.915541 1.017777 -0.000001 0.000002 -19.127304 -24.466477 18.314329 -5.732194 0.000002 -0.000004 -14.874895 6.774860 32.624426 21.060552
-53.924309 -48.586601 43.872803 -331.380042 10.038309 -0.667864 -0.689795 0.941998 5.341003 1.200226 -12.316878 7.524492 -0.000005 -0.000003 4.278894 -1.488822 0.123009 0.012799 0.000005 -0.000001 9.970291 32.334536 -1.682062 -10.565301 0.000005 0.000009 2.173896 4.105162 -2.062927 3.572533 2.472303 -0.285805 5.433900 -12.717393 5.477898 -6.828202 5.327703 -0.000009 0.000003 -316.547084 -71.884702 -359.003076 0.000002 -0.000009 -10.712997 69.776693 -15.616379 49.129643 -0.000004 -0.000000 -13.396889 -5.577546 -0.614445 -64.291567 -2.589396 -1.358398 6.105002 3.586322 -8.765228 36.536881 -4.580216 0.000003 0.000001 55.354250 -51.298266 151.246848 -0.000004 -0.000007 -10.761104 -31.247033 -17.614170 -13.175782 -0.000006 -0.000001 -13.028495 173.866850 179.224970 218.493162 2.532504 0.486900 -2.489696 74.308005 -46.755346 33.193087 -0.000001 0.000001 -18.199396 -411.769101 66.738345 30.796032 -0.000001 -0.000002 -16.083900 346.108088 60.497957 9.577071 -2.112695 -0.049904 -2.711100 2.424326 -7.056241 1.115605 0.000005 0.000002 -19.127296 -24.520929 18.255984 -5.731150 -0.000003 -0.000005 -14.874899 6.831840 32.743036 21.129339
